
<svg xmlns="http://www.w3.org/2000/svg" xmlns:xlink="http://www.w3.org/1999/xlink" version="1.1" id="Capa_1" x="0px" y="0px" viewBox="0 0 512 512" style="enable-background:new 0 0 512 512;" xml:space="preserve" width="512" height="512">
<path d="M437.02,74.98C388.667,26.629,324.38,0,256,0S123.333,26.629,74.98,74.98C26.629,123.333,0,187.62,0,256  s26.629,132.667,74.98,181.02C123.333,485.371,187.62,512,256,512s132.667-26.629,181.02-74.98C485.371,388.667,512,324.38,512,256  S485.371,123.333,437.02,74.98z M271,165.283c27.552-0.824,54.303-3.914,79.372-9.047c6.241,26.302,9.951,54.965,10.885,84.764H271  V165.283z M271,135.267V32.524c20.727,6.917,40.83,27.852,56.79,59.772c5.413,10.826,10.22,22.562,14.387,35.041  C319.738,131.785,295.766,134.488,271,135.267z M241,32.524v102.743c-24.766-0.779-48.738-3.483-71.177-7.931  c4.168-12.479,8.974-24.215,14.387-35.041C200.17,60.376,220.273,39.441,241,32.524z M241,165.283V241h-90.257  c0.935-29.799,4.644-58.462,10.885-84.764C186.697,161.369,213.448,164.459,241,165.283z M120.731,241H30.502  c2.744-42.147,17.024-82.054,41.323-116.05c17.901,9.693,38.376,17.813,60.681,24.18C125.698,177.76,121.686,208.832,120.731,241z   M120.731,271c0.955,32.168,4.967,63.24,11.774,91.87c-22.305,6.367-42.78,14.487-60.681,24.18  C47.526,353.054,33.246,313.147,30.502,271H120.731z M150.743,271H241v75.717c-27.552,0.824-54.303,3.914-79.372,9.047  C155.387,329.462,151.677,300.799,150.743,271z M241,376.733v102.743c-20.727-6.917-40.83-27.852-56.79-59.772  c-5.413-10.826-10.219-22.562-14.387-35.041C192.262,380.215,216.234,377.512,241,376.733z M271,479.476V376.733  c24.766,0.779,48.738,3.483,71.177,7.931c-4.168,12.479-8.974,24.215-14.387,35.041C311.83,451.624,291.727,472.559,271,479.476z   M271,346.717V271h90.257c-0.935,29.799-4.644,58.462-10.885,84.764C325.303,350.631,298.552,347.541,271,346.717z M391.269,271  h90.229c-2.744,42.147-17.024,82.054-41.323,116.05c-17.901-9.693-38.376-17.813-60.681-24.18  C386.302,334.24,390.314,303.168,391.269,271z M391.269,241c-0.955-32.168-4.967-63.24-11.774-91.87  c22.305-6.367,42.78-14.487,60.681-24.18c24.299,33.996,38.579,73.903,41.323,116.05H391.269z M420.731,101.291  c-14.738,7.494-31.332,13.87-49.315,19.013c-4.799-14.762-10.407-28.651-16.794-41.425c-6.787-13.575-14.263-25.504-22.294-35.725  c31.034,11.105,59.479,29.042,83.477,53.041C417.481,97.869,419.116,99.573,420.731,101.291z M179.671,43.154  c-8.031,10.221-15.507,22.151-22.294,35.725c-6.387,12.774-11.995,26.663-16.794,41.425c-17.983-5.143-34.576-11.519-49.315-19.013  c1.616-1.718,3.25-3.422,4.925-5.096C120.192,72.195,148.638,54.259,179.671,43.154z M91.269,410.709  c14.738-7.494,31.332-13.87,49.315-19.013c4.799,14.762,10.407,28.651,16.794,41.425c6.787,13.575,14.263,25.504,22.294,35.725  c-31.034-11.105-59.479-29.042-83.477-53.041C94.519,414.131,92.884,412.427,91.269,410.709z M332.329,468.846  c8.031-10.221,15.507-22.151,22.294-35.725c6.387-12.774,11.995-26.663,16.794-41.425c17.983,5.143,34.576,11.519,49.315,19.013  c-1.616,1.718-3.25,3.422-4.925,5.096C391.808,439.805,363.362,457.741,332.329,468.846z"/></svg>
