<svg id="Layer_1" enable-background="new 0 0 512 512" height="512" viewBox="0 0 512 512" width="512" xmlns="http://www.w3.org/2000/svg"><g><path d="m292.7512 479.9956h-223.7671c-3.6807 0-6.7905-3.1094-6.7905-6.79v-434.4102c0-3.6807 3.1099-6.791 6.7905-6.791h223.7671c8.8364 0 16-7.1631 16-16s-7.1636-16-16-16h-223.7671c-21.3892 0-38.7905 17.4014-38.7905 38.791v434.4102c0 21.3887 17.4014 38.79 38.7905 38.79h223.7671c8.8364 0 16-7.1631 16-16s-7.1636-16-16-16z"/><path d="m476.0569 243.7007-105.9307-88.3838c-4.7686-3.9785-11.4087-4.8389-17.0327-2.2061-5.6245 2.6318-9.2178 8.2813-9.2178 14.4912v38.0273h-157.0835c-8.8364 0-16 7.1631-16 16v68.7402c0 8.8369 7.1636 16 16 16h157.0835v38c0 6.21 3.5933 11.8594 9.2178 14.4912 2.1646 1.0137 4.479 1.5088 6.7798 1.5088 3.6777 0 7.3193-1.2676 10.2529-3.7148l105.9307-88.3838c3.6436-3.04 5.7495-7.54 5.7495-12.2852s-2.106-9.245-5.7495-12.285z"/></g></svg>